<?xml version="1.0" encoding="utf-8"?>

<!DOCTYPE svg PUBLIC "-//W3C//DTD SVG 1.0//EN" "http://www.w3.org/TR/2001/REC-SVG-20010904/DTD/svg10.dtd">
<!-- Uploaded to: SVG Repo, www.svgrepo.com, Generator: SVG Repo Mixer Tools -->
<svg version="1.0" id="Layer_1" xmlns="http://www.w3.org/2000/svg" xmlns:xlink="http://www.w3.org/1999/xlink" 
	 width="800px" height="800px" viewBox="0 0 64 64" enable-background="new 0 0 64 64" xml:space="preserve">
<g>
	<g>
		<path fill="#B4CCB9" d="M41.727,31.727c-0.923,1.863-2.099,3.578-3.487,5.098L62,60.586V52L41.727,31.727z"/>
		<path fill="#B4CCB9" d="M30.35,42.35L32,44h5c0.553,0,1,0.447,1,1v5h5c0.553,0,1,0.447,1,1v5h5c0.553,0,1,0.447,1,1v5h10.586
			L36.825,38.238C34.938,39.963,32.749,41.361,30.35,42.35z"/>
	</g>
	<g>
		<path fill="#394240" d="M22,10c-6.617,0-12,5.383-12,12s5.383,12,12,12s12-5.383,12-12S28.617,10,22,10z M22,32
			c-5.514,0-10-4.486-10-10s4.486-10,10-10s10,4.486,10,10S27.514,32,22,32z"/>
		<path fill="#394240" d="M22,14c-4.411,0-8,3.588-8,8c0,4.41,3.589,8,8,8s8-3.59,8-8C30,17.588,26.411,14,22,14z M22,28
			c-3.309,0-6-2.691-6-6s2.691-6,6-6s6,2.691,6,6S25.309,28,22,28z"/>
		<path fill="#394240" d="M63.414,50.586l-20.83-20.83C43.497,27.342,44,24.729,44,22C44,9.869,34.131,0,22,0S0,9.869,0,22
			s9.869,22,22,22c2.195,0,4.315-0.328,6.318-0.93c0.076,0.121,0.162,0.238,0.268,0.344l2,2C30.961,45.789,31.47,46,32,46h4v4
			c0,1.104,0.896,2,2,2h4v4c0,1.104,0.896,2,2,2h4v4c0,1.104,0.896,2,2,2h12c1.104,0,2-0.896,2-2V52
			C64,51.469,63.789,50.961,63.414,50.586z M22,42C10.972,42,2,33.027,2,22C2,10.971,10.972,2,22,2s20,8.971,20,20
			C42,33.027,33.028,42,22,42z M50,62v-5c0-0.553-0.447-1-1-1h-5v-5c0-0.553-0.447-1-1-1h-5v-5c0-0.553-0.447-1-1-1h-5l-1.65-1.65
			c2.399-0.988,4.588-2.387,6.476-4.111L60.586,62H50z M62,60.586L38.239,36.824c1.389-1.52,2.564-3.234,3.487-5.098L62,52V60.586z"
			/>
	</g>
	<g>
		<path fill="#45AAB8" d="M22,2C10.972,2,2,10.971,2,22c0,11.027,8.972,20,20,20s20-8.973,20-20C42,10.971,33.028,2,22,2z M22,34
			c-6.627,0-12-5.373-12-12s5.373-12,12-12s12,5.373,12,12S28.627,34,22,34z"/>
		<path fill="#45AAB8" d="M22,12c-5.522,0-10,4.477-10,10c0,5.521,4.478,10,10,10s10-4.479,10-10C32,16.477,27.522,12,22,12z M22,30
			c-4.418,0-8-3.582-8-8s3.582-8,8-8s8,3.582,8,8S26.418,30,22,30z"/>
	</g>
	<path opacity="0.15" d="M62,52v8.586L38.239,36.824c1.389-1.52,2.564-3.234,3.487-5.098L62,52z"/>
	<path opacity="0.2" d="M22,12c-5.522,0-10,4.477-10,10c0,5.521,4.478,10,10,10s10-4.479,10-10C32,16.477,27.522,12,22,12z M22,30
		c-4.418,0-8-3.582-8-8s3.582-8,8-8s8,3.582,8,8S26.418,30,22,30z"/>
</g>
</svg>